<?xml version="1.0" encoding="UTF-8" standalone="no"?>
<!DOCTYPE svg PUBLIC "-//W3C//DTD SVG 1.1//EN"
 "http://www.w3.org/Graphics/SVG/1.1/DTD/svg11.dtd">
<!-- Generated by graphviz version 2.36.0 (20140111.2315)
 -->
<!-- Title: %3 Pages: 1 -->
<svg width="314pt" height="332pt"
 viewBox="0.00 0.00 314.00 332.00" xmlns="http://www.w3.org/2000/svg" xmlns:xlink="http://www.w3.org/1999/xlink">
<g id="graph0" class="graph" transform="scale(1 1) rotate(0) translate(4 328)">
<title>%3</title>
<polygon fill="white" stroke="none" points="-4,4 -4,-328 310,-328 310,4 -4,4"/>
<!-- 0 -->
<g id="node1" class="node"><title>0</title>
<ellipse fill="none" stroke="black" cx="18" cy="-306" rx="18" ry="18"/>
<text text-anchor="middle" x="18" y="-302.3" font-family="Times,serif" font-size="14.00">b</text>
</g>
<!-- 3 -->
<g id="node2" class="node"><title>3</title>
<ellipse fill="none" stroke="black" cx="234" cy="-306" rx="18" ry="18"/>
<text text-anchor="middle" x="234" y="-302.3" font-family="Times,serif" font-size="14.00">d</text>
</g>
<!-- 0&#45;&gt;3 -->
<g id="edge3" class="edge"><title>0&#45;&gt;3</title>
<path fill="none" stroke="black" stroke-dasharray="1,5" d="M36.1406,-306C92.6468,-306 149.153,-306 205.659,-306"/>
<polygon fill="black" stroke="black" points="205.837,-309.5 215.837,-306 205.837,-302.5 205.837,-309.5"/>
</g>
<!-- 1 -->
<g id="node3" class="node"><title>1</title>
<ellipse fill="none" stroke="black" cx="18" cy="-234" rx="18" ry="18"/>
<text text-anchor="middle" x="18" y="-230.3" font-family="Times,serif" font-size="14.00">a</text>
</g>
<!-- 0&#45;&gt;1 -->
<g id="edge1" class="edge"><title>0&#45;&gt;1</title>
<path fill="none" stroke="black" d="M18,-287.697C18,-279.983 18,-270.712 18,-262.112"/>
<polygon fill="black" stroke="black" points="21.5001,-262.104 18,-252.104 14.5001,-262.104 21.5001,-262.104"/>
</g>
<!-- 4 -->
<g id="node6" class="node"><title>4</title>
<ellipse fill="none" stroke="black" cx="234" cy="-234" rx="18" ry="18"/>
<text text-anchor="middle" x="234" y="-230.3" font-family="Times,serif" font-size="14.00">a</text>
</g>
<!-- 3&#45;&gt;4 -->
<g id="edge4" class="edge"><title>3&#45;&gt;4</title>
<path fill="none" stroke="black" d="M234,-287.697C234,-279.983 234,-270.712 234,-262.112"/>
<polygon fill="black" stroke="black" points="237.5,-262.104 234,-252.104 230.5,-262.104 237.5,-262.104"/>
</g>
<!-- 6 -->
<g id="node5" class="node"><title>6</title>
<ellipse fill="none" stroke="black" cx="18" cy="-162" rx="18" ry="18"/>
<text text-anchor="middle" x="18" y="-158.3" font-family="Times,serif" font-size="14.00">b</text>
</g>
<!-- 1&#45;&gt;6 -->
<g id="edge2" class="edge"><title>1&#45;&gt;6</title>
<path fill="none" stroke="black" d="M18,-215.697C18,-207.983 18,-198.712 18,-190.112"/>
<polygon fill="black" stroke="black" points="21.5001,-190.104 18,-180.104 14.5001,-190.104 21.5001,-190.104"/>
</g>
<!-- 11 -->
<g id="node12" class="node"><title>11</title>
<ellipse fill="none" stroke="black" cx="180" cy="-234" rx="18" ry="18"/>
<text text-anchor="middle" x="180" y="-230.3" font-family="Times,serif" font-size="14.00">o</text>
</g>
<!-- 1&#45;&gt;11 -->
<g id="edge11" class="edge"><title>1&#45;&gt;11</title>
<path fill="none" stroke="black" stroke-dasharray="1,5" d="M36.0352,-234C74.4944,-234 112.954,-234 151.413,-234"/>
<polygon fill="black" stroke="black" points="151.723,-237.5 161.723,-234 151.723,-230.5 151.723,-237.5"/>
</g>
<!-- 2 -->
<g id="node4" class="node"><title>2</title>
<ellipse fill="none" stroke="black" cx="72" cy="-162" rx="18" ry="18"/>
<text text-anchor="middle" x="72" y="-158.3" font-family="Times,serif" font-size="14.00">d</text>
</g>
<!-- 13 -->
<g id="node14" class="node"><title>13</title>
<ellipse fill="none" stroke="black" cx="126" cy="-162" rx="18" ry="18"/>
<text text-anchor="middle" x="126" y="-158.3" font-family="Times,serif" font-size="14.00">n</text>
</g>
<!-- 2&#45;&gt;13 -->
<g id="edge13" class="edge"><title>2&#45;&gt;13</title>
<path fill="none" stroke="black" stroke-dasharray="1,5" d="M90.1406,-162C92.6226,-162 95.1046,-162 97.5865,-162"/>
<polygon fill="black" stroke="black" points="97.7902,-165.5 107.79,-162 97.7901,-158.5 97.7902,-165.5"/>
</g>
<!-- 6&#45;&gt;2 -->
<g id="edge6" class="edge"><title>6&#45;&gt;2</title>
<path fill="none" stroke="black" stroke-dasharray="1,5" d="M36.1406,-162C38.6226,-162 41.1046,-162 43.5865,-162"/>
<polygon fill="black" stroke="black" points="43.7902,-165.5 53.7902,-162 43.7901,-158.5 43.7902,-165.5"/>
</g>
<!-- 7 -->
<g id="node8" class="node"><title>7</title>
<ellipse fill="none" stroke="black" cx="18" cy="-90" rx="18" ry="18"/>
<text text-anchor="middle" x="18" y="-86.3" font-family="Times,serif" font-size="14.00">y</text>
</g>
<!-- 6&#45;&gt;7 -->
<g id="edge7" class="edge"><title>6&#45;&gt;7</title>
<path fill="none" stroke="black" d="M18,-143.697C18,-135.983 18,-126.712 18,-118.112"/>
<polygon fill="black" stroke="black" points="21.5001,-118.104 18,-108.104 14.5001,-118.104 21.5001,-118.104"/>
</g>
<!-- 5 -->
<g id="node7" class="node"><title>5</title>
<ellipse fill="none" stroke="black" cx="234" cy="-162" rx="18" ry="18"/>
<text text-anchor="middle" x="234" y="-158.3" font-family="Times,serif" font-size="14.00">d</text>
</g>
<!-- 4&#45;&gt;5 -->
<g id="edge5" class="edge"><title>4&#45;&gt;5</title>
<path fill="none" stroke="black" d="M234,-215.697C234,-207.983 234,-198.712 234,-190.112"/>
<polygon fill="black" stroke="black" points="237.5,-190.104 234,-180.104 230.5,-190.104 237.5,-190.104"/>
</g>
<!-- 8 -->
<g id="node9" class="node"><title>8</title>
<ellipse fill="none" stroke="black" cx="288" cy="-162" rx="18" ry="18"/>
<text text-anchor="middle" x="288" y="-158.3" font-family="Times,serif" font-size="14.00">n</text>
</g>
<!-- 5&#45;&gt;8 -->
<g id="edge8" class="edge"><title>5&#45;&gt;8</title>
<path fill="none" stroke="black" stroke-dasharray="1,5" d="M252.141,-162C254.623,-162 257.105,-162 259.587,-162"/>
<polygon fill="black" stroke="black" points="259.79,-165.5 269.79,-162 259.79,-158.5 259.79,-165.5"/>
</g>
<!-- 9 -->
<g id="node10" class="node"><title>9</title>
<ellipse fill="none" stroke="black" cx="288" cy="-90" rx="18" ry="18"/>
<text text-anchor="middle" x="288" y="-86.3" font-family="Times,serif" font-size="14.00">c</text>
</g>
<!-- 8&#45;&gt;9 -->
<g id="edge9" class="edge"><title>8&#45;&gt;9</title>
<path fill="none" stroke="black" d="M288,-143.697C288,-135.983 288,-126.712 288,-118.112"/>
<polygon fill="black" stroke="black" points="291.5,-118.104 288,-108.104 284.5,-118.104 291.5,-118.104"/>
</g>
<!-- 10 -->
<g id="node11" class="node"><title>10</title>
<ellipse fill="none" stroke="black" cx="288" cy="-18" rx="18" ry="18"/>
<text text-anchor="middle" x="288" y="-14.3" font-family="Times,serif" font-size="14.00">e</text>
</g>
<!-- 9&#45;&gt;10 -->
<g id="edge10" class="edge"><title>9&#45;&gt;10</title>
<path fill="none" stroke="black" d="M288,-71.6966C288,-63.9827 288,-54.7125 288,-46.1124"/>
<polygon fill="black" stroke="black" points="291.5,-46.1043 288,-36.1043 284.5,-46.1044 291.5,-46.1043"/>
</g>
<!-- 12 -->
<g id="node13" class="node"><title>12</title>
<ellipse fill="none" stroke="black" cx="180" cy="-162" rx="18" ry="18"/>
<text text-anchor="middle" x="180" y="-158.3" font-family="Times,serif" font-size="14.00">x</text>
</g>
<!-- 11&#45;&gt;12 -->
<g id="edge12" class="edge"><title>11&#45;&gt;12</title>
<path fill="none" stroke="black" d="M180,-215.697C180,-207.983 180,-198.712 180,-190.112"/>
<polygon fill="black" stroke="black" points="183.5,-190.104 180,-180.104 176.5,-190.104 183.5,-190.104"/>
</g>
<!-- 14 -->
<g id="node15" class="node"><title>14</title>
<ellipse fill="none" stroke="black" cx="126" cy="-90" rx="18" ry="18"/>
<text text-anchor="middle" x="126" y="-86.3" font-family="Times,serif" font-size="14.00">k</text>
</g>
<!-- 13&#45;&gt;14 -->
<g id="edge14" class="edge"><title>13&#45;&gt;14</title>
<path fill="none" stroke="black" d="M126,-143.697C126,-135.983 126,-126.712 126,-118.112"/>
<polygon fill="black" stroke="black" points="129.5,-118.104 126,-108.104 122.5,-118.104 129.5,-118.104"/>
</g>
</g>
</svg>
